# AST/ASF file generated using VICON BodyLanguage
# -----------------------------------------------
:version 1.10
:name VICON
:units
  mass 1.0
  length 0.45
  angle deg
:documentation
   .ast/.asf automatically generated from VICON data using
   VICON BodyBuilder and BodyLanguage model FoxedUp or BRILLIANT.MOD
:root
   order TX TY TZ RX RY RZ
   axis XYZ
   position 0 0 0  
   orientation 0 0 0 
:bonedata
  begin
     id 1 
     name lhipjoint
     direction 0.621036 -0.695554 0.361275 
     length 2.46325 
     axis 0 0 0  XYZ
  end
  begin
     id 2 
     name lfemur
     direction 0.34202 -0.939693 0  
     length 6.54784  
     axis 0 0 20  XYZ
    dof rx ry rz
    limits (-160.0 20.0)
           (-70.0 70.0)
           (-60.0 70.0)
  end
  begin
     id 3 
     name ltibia
     direction 0.34202 -0.939693 0   
     length 7.84737   
     axis 0 0 20   XYZ
    dof rx
    limits (-10.0 170.0)
  end
  begin
     id 4 
     name lfoot
     direction 0.0790693 -0.217241 0.97291   
     length 2.59747   
     axis -90 7.62852e-016 20   XYZ
    dof rx rz
    limits (-45.0 90.0)
           (-70.0 20.0)
  end
  begin
     id 5 
     name ltoes
     direction 1.53572e-011 -4.21898e-011 1   
     length 1.29919   
     axis -90 7.62852e-016 20   XYZ
    dof rx
    limits (-90.0 20.0)
  end
  begin
     id 6 
     name rhipjoint
     direction -0.602353 -0.708375 0.367935   
     length 2.41867  
     axis 0 0 0  XYZ 
  end
  begin
     id 7 
     name rfemur
     direction -0.34202 -0.939693 0   
     length 6.92065   
     axis 0 0 -20   XYZ
    dof rx ry rz
    limits (-160.0 20.0)
           (-70.0 70.0)
           (-70.0 60.0)
  end
  begin
     id 8 
     name rtibia
     direction -0.34202 -0.939693 0   
     length 7.88883   
     axis 0 0 -20   XYZ
    dof rx
    limits (-10.0 170.0)
 end
 begin
     id 9 
     name rfoot
     direction -0.0768692 -0.211196 0.974416   
     length 2.43714  
     axis -90 -7.62852e-016 -20   XYZ
    dof rx rz
    limits (-45.0 90.0)
           (-20.0 70.0)
  end
  begin
     id 10 
     name rtoes
     direction -1.53575e-011 -4.21933e-011 1   
     length 1.22113   
     axis -90 -7.62852e-016 -20   XYZ
    dof rx
    limits (-90.0 20.0)
  end
  begin
     id 11 
     name lowerback
     direction 0.0197937 0.98943 -0.143655   
     length 2.16931   
     axis 0 0 0   XYZ
    dof rx ry rz
    limits (-20.0 45.0)
           (-30.0 30.0)
           (-30.0 30.0)
  end
  begin
     id 12 
     name upperback
     direction -0.00183968 0.999975 0.00684288   
     length 2.17221   
     axis 0 0 0   XYZ
    dof rx ry rz
    limits (-20.0 45.0)
           (-30.0 30.0)
           (-30.0 30.0)
  end
  begin
     id 13 
     name thorax
     direction -0.00950244 0.997208 0.0740685   
     length 2.22549   
     axis 0 0 0   XYZ
    dof rx ry rz
    limits (-20.0 45.0)
           (-30.0 30.0)
           (-30.0 30.0)
  end
  begin
     id 14 
     name lowerneck
     direction 0.0218238 0.996215 0.0841425   
     length 1.77269   
     axis 0 0 0   XYZ
    dof rx ry rz
    limits (-20.0 45.0)
           (-30.0 30.0)
           (-30.0 30.0)
  end
  begin
     id 15 
     name upperneck
     direction -0.00430652 0.994214 -0.107332   
     length 1.76534   
     axis 0 0 0   XYZ
    dof rx ry rz
    limits (-20.0 45.0)
           (-30.0 30.0)
           (-30.0 30.0)
  end
  begin
     id 16
     name head
     direction -0.00328946 0.998959 -0.0454998  
     length 1.82634  
     axis 0 0 0   XYZ
    dof rx ry rz
    limits (-20.0 45.0)
           (-30.0 30.0)
           (-30.0 30.0)
  end
  begin
     id 17 
     name lclavicle
     direction 0.970962 0.239191 0.00450212  
     length 3.84872  
     axis 0 0 0   XYZ
    dof ry rz
    limits (-20.0 10.0)
           (0.0 20.0)
  end
  begin
     id 18 
     name lhumerus
     direction 1 -4.48966e-011 5.74696e-028   
     length 5.22771   
     axis 180 -30 -90   XYZ
    dof rx ry rz
    limits (-60.0 90.0)
           (-90.0 90.0)
           (-90.0 90.0)
  end
  begin
     id 19
     name lradius
     direction 1 -4.4896e-011 4.25109e-027   
     length 3.45251   
     axis 180 -30 -90   XYZ
    dof rx
    limits (-10.0 170.0)
  end
  begin
     id 20
     name lwrist
     direction 1 -4.48971e-011 1.15382e-027   
     length 1.72626   
     axis -5.52449e-016 90 90   XYZ
    dof ry
    limits (-180.0 0.0)
 end
  begin
     id 21 
     name lhand
     direction 1 -4.49034e-011 2.30765e-027   
     length 0.552119   
     axis -1.47248e-015 90 90   XYZ
    dof rx rz
    limits (-90.0 90.0)
           (-45.0 45.0)
  end
  begin
     id 22 
     name lfingers
     direction 1 -4.48951e-011 4.61529e-027   
     length 0.445133   
     axis -2.94495e-015 90 90   XYZ
    dof rx
    limits (0.0 90.0)
  end
  begin
     id 23
     name lthumb
     direction 0.707107 -6.34991e-011 0.707107   
     length 0.639124   
     axis -90 45 2.85299e-015   XYZ
    dof rx rz
    limits (-45.0 45.0)
           (-45.0 45.0)
  end
  begin
     id 24 
     name rclavicle
     direction -0.97424 0.222511 -0.0366699   
     length 3.73439  
     axis 0 0 0   XYZ 
    dof ry rz
    limits (-10.0 20.0)
           (-20.0 0.0)
  end
  begin
     id 25 
     name rhumerus
     direction -1 -4.48956e-011 -4.97258e-028  
     length 5.2398   
     axis 180 30 90   XYZ
    dof rx ry rz
    limits (-90.0 60.0)
           (-90.0 90.0)
           (-90.0 90.0)
  end
  begin
     id 26 
     name rradius
     direction -1 -4.4897e-011 -1.72611e-027   
     length 3.48042   
     axis 180 30 90   XYZ
    dof rx
    limits (-10.0 170.0)
  end
  begin
     id 27 
     name rwrist
     direction -1 -4.48976e-011 1.15382e-027   
     length 1.74021   
     axis -5.52449e-016 -90 -90   XYZ
    dof ry
    limits (-180.0 0.0)
  end
  begin
     id 28
     name rhand
     direction -1 -4.48963e-011 2.30765e-027   
     length 0.618713   
     axis -1.47248e-015 -90 -90   XYZ
    dof rx rz
    limits (-90.0 90.0)
           (-45.0 45.0)
  end
  begin
     id 29
     name rfingers
     direction -1 -4.4888e-011 4.61529e-027   
     length 0.498823   
     axis -2.94495e-015 -90 -90   XYZ
    dof rx
    limits (0.0 90.0)
  end
  begin
     id 30
     name rthumb
     direction -0.707107 -6.34968e-011 0.707107   
     length 0.716213   
     axis -90 -45 -2.85299e-015   XYZ
    dof rx rz
    limits (-45.0 45.0)
           (-45.0 45.0)
  end
:hierarchy
  begin
    root lhipjoint rhipjoint lowerback
    lhipjoint lfemur
    lfemur ltibia
    ltibia lfoot
    lfoot ltoes
    rhipjoint rfemur
    rfemur rtibia
    rtibia rfoot
    rfoot rtoes
    lowerback upperback
    upperback thorax
    thorax lowerneck lclavicle rclavicle
    lowerneck upperneck
    upperneck head
    lclavicle lhumerus
    lhumerus lradius
    lradius lwrist
    lwrist lhand lthumb
    lhand lfingers
    rclavicle rhumerus
    rhumerus rradius
    rradius rwrist
    rwrist rhand rthumb
    rhand rfingers
  end

#!OML:ASF G:\JayActor3\Patient Classification 1\Patient 1\Session 5\male.ASF
:FULLY-SPECIFIED
:DEGREES
81
root -40.6699 17.4175 -4.89883 -113.939 84.5258 -146.94
lowerback 19.6767 -1.09009 2.87413
upperback 3.38897 -0.579225 0.486668
thorax -7.36473 -0.254849 -0.975758
lowerneck 4.6042 -0.875897 1.8575
upperneck -16.9958 -0.25067 2.91639
head -5.89581 -0.322657 0.613334
rclavicle 2.38542e-015 2.90226e-014
rhumerus -33.3384 1.26964 -89.5426
rradius 37.4627
rwrist -7.11596
rhand -21.1214 -8.76733
rfingers 7.12502
rthumb 5.25715 -38.6821
lclavicle 2.38542e-015 2.90226e-014
lhumerus -32.5711 -3.23318 88.7432
lradius 30.8894
lwrist 28.3541
lhand -19.1413 10.7287
lfingers 7.12502
lthumb 7.16871 40.5873
rfemur -52.5437 4.65885 20.9334
rtibia 33.5802
rfoot -18.898 -14.1853
rtoes 14.47
lfemur -45.7294 10.0852 -22.8698
ltibia 19.275
lfoot -4.97763 -2.18662
ltoes -7.68406
82
root -40.6633 17.4183 -4.89874 -113.998 84.5117 -146.984
lowerback 19.665 -1.11025 2.89661
upperback 3.36219 -0.600918 0.501457
thorax -7.38846 -0.266703 -0.9669
lowerneck 4.54231 -0.869574 1.83225
upperneck -16.9868 -0.241689 2.94013
head -5.88212 -0.317199 0.624083
rclavicle 7.95139e-016 -7.95139e-015
rhumerus -33.3248 1.17705 -89.5244
rradius 37.3443
rwrist -7.05153
rhand -21.1599 -8.77853
rfingers 7.12502
rthumb 5.21996 -38.6942
lclavicle 7.95139e-016 -7.95139e-015
lhumerus -32.5315 -3.11948 88.7697
lradius 30.8273
lwrist 28.2986
lhand -19.1374 10.725
lfingers 7.12502
lthumb 7.17249 40.5834
rfemur -52.4888 4.59102 20.9917
rtibia 33.5623
rfoot -18.8766 -14.1481
rtoes 14.3117
lfemur -45.6858 10.1116 -22.8721
ltibia 19.2706
lfoot -5.00516 -2.22767
ltoes -7.67258
83
root -40.6573 17.4185 -4.89837 -113.965 84.5103 -146.945
lowerback 19.6421 -1.12549 2.89949
upperback 3.33948 -0.620393 0.519961
thorax -7.4014 -0.276805 -0.943558
lowerneck 4.46778 -0.860517 1.79739
upperneck -16.9585 -0.231734 2.96185
head -5.86017 -0.310333 0.635606
rclavicle -3.18055e-015 -7.95139e-015
rhumerus -33.2967 1.11221 -89.5057
rradius 37.2184
rwrist -7.00041
rhand -21.1863 -8.77912
rfingers 7.12502
rthumb 5.19444 -38.6955
lclavicle -3.18055e-015 -7.95139e-015
lhumerus -32.4772 -2.96414 88.7847
lradius 30.763
lwrist 28.2229
lhand -19.1554 10.7081
lfingers 7.12502
lthumb 7.15512 40.5672
rfemur -52.4509 4.55222 21.0313
rtibia 33.5471
rfoot -18.8593 -14.1283
rtoes 14.1639
lfemur -45.6568 10.147 -22.8805
ltibia 19.2668
lfoot -5.02778 -2.26614
ltoes -7.65328
84
root -40.6521 17.4183 -4.89759 -113.89 84.5152 -146.878
lowerback 19.6098 -1.13386 2.89972
upperback 3.31071 -0.632681 0.532648
thorax -7.41564 -0.283739 -0.926854
lowerneck 4.39148 -0.854024 1.76508
upperneck -16.907 -0.225481 2.98977
head -5.83059 -0.305851 0.648815
rclavicle 1.5704e-014 -6.16232e-015
rhumerus -33.266 1.04132 -89.4924
rradius 37.0803
rwrist -6.95465
rhand -21.1947 -8.77262
rfingers 7.12502
rthumb 5.18632 -38.6892
lclavicle 1.5704e-014 -6.16232e-015
lhumerus -32.4269 -2.80452 88.7827
lradius 30.7024
lwrist 28.1371
lhand -19.1937 10.6837
lfingers 7.12502
lthumb 7.11817 40.544
rfemur -52.4366 4.54871 21.0465
rtibia 33.5351
rfoot -18.8509 -14.1392
rtoes 14.0319
lfemur -45.6478 10.1714 -22.8833
ltibia 19.2632
lfoot -5.04417 -2.2871
ltoes -7.6127
85
root -40.6476 17.4177 -4.89661 -113.782 84.5259 -146.782
lowerback 19.5799 -1.13821 2.89516
upperback 3.28092 -0.64092 0.542466
thorax -7.43213 -0.288705 -0.911527
lowerneck 4.30455 -0.847309 1.73431
upperneck -16.8307 -0.220639 3.01647
head -5.79144 -0.301886 0.661334
rclavicle -7.15625e-015 -6.16232e-014
rhumerus -33.2298 0.977446 -89.4843
rradius 36.9332
rwrist -6.91563
rhand -21.1865 -8.75892
rfingers 7.12502
rthumb 5.19425 -38.6753
lclavicle -7.15625e-015 -6.16232e-014
lhumerus -32.3812 -2.63213 88.765
lradius 30.6521
lwrist 28.0546
lhand -19.2413 10.6581
lfingers 7.12502
lthumb 7.07227 40.52
rfemur -52.4328 4.56698 21.0464
rtibia 33.5257
rfoot -18.8488 -14.1678
rtoes 13.9161
lfemur -45.6461 10.196 -22.8873
ltibia 19.2593
lfoot -5.05851 -2.3036
ltoes -7.57846
86
root -40.6435 17.4172 -4.8956 -113.675 84.5394 -146.686
lowerback 19.5649 -1.14069 2.90102
upperback 3.24411 -0.645187 0.539961
thorax -7.46429 -0.29251 -0.916246
lowerneck 4.22107 -0.842557 1.72209
upperneck -16.733 -0.218253 3.04066
head -5.74627 -0.300135 0.670078
rclavicle -9.93923e-015 -3.97569e-015
rhumerus -33.2029 0.899037 -89.4901
rradius 36.7783
rwrist -6.8739
rhand -21.1632 -8.74091
rfingers 7.12502
rthumb 5.21679 -38.6567
lclavicle -9.93923e-015 -3.97569e-015
lhumerus -32.3585 -2.47545 88.7258
lradius 30.6176
lwrist 27.989
lhand -19.2981 10.634
lfingers 7.12502
lthumb 7.01738 40.4977
rfemur -52.4294 4.59764 21.0357
rtibia 33.5176
rfoot -18.8535 -14.2069
rtoes 13.8158
lfemur -45.6418 10.2112 -22.8858
ltibia 19.2557
lfoot -5.07299 -2.30827
ltoes -7.53098
87
root -40.6397 17.417 -4.89498 -113.629 84.5501 -146.645
lowerback 19.5666 -1.147 2.92574
upperback 3.20272 -0.65088 0.526103
thorax -7.51084 -0.297843 -0.943388
lowerneck 4.13582 -0.837929 1.72386
upperneck -16.6179 -0.216165 3.0619
head -5.69552 -0.299098 0.675519
rclavicle 2.8625e-014 4.4329e-014
rhumerus -33.1855 0.815003 -89.5099
rradius 36.6219
rwrist -6.82915
rhand -21.1303 -8.72146
rfingers 7.12502
rthumb 5.2485 -38.6365
lclavicle 2.8625e-014 4.4329e-014
lhumerus -32.3564 -2.33735 88.6681
lradius 30.598
lwrist 27.9494
lhand -19.3682 10.596
lfingers 7.12502
lthumb 6.94975 40.4619
rfemur -52.4204 4.61077 21.0297
rtibia 33.51
rfoot -18.8561 -14.2321
rtoes 13.7242
lfemur -45.6311 10.216 -22.8842
ltibia 19.2518
lfoot -5.08883 -2.30723
ltoes -7.51248
88
root -40.6363 17.4171 -4.89479 -113.65 84.5557 -146.665
lowerback 19.5729 -1.15719 2.95765
upperback 3.16832 -0.659534 0.513332
thorax -7.55248 -0.304472 -0.972722
lowerneck 4.05096 -0.832433 1.71818
upperneck -16.5077 -0.213379 3.08323
head -5.64637 -0.297249 0.682196
rclavicle -2.38542e-015 1.15295e-014
rhumerus -33.157 0.740182 -89.5286
rradius 36.4599
rwrist -6.77557
rhand -21.0934 -8.69968
rfingers 7.12502
rthumb 5.28419 -38.6138
lclavicle -2.38542e-015 1.15295e-014
lhumerus -32.3573 -2.2047 88.6055
lradius 30.591
lwrist 27.9402
lhand -19.4394 10.5441
lfingers 7.12502
lthumb 6.88097 40.4123
rfemur -52.4032 4.60102 21.0335
rtibia 33.5019
rfoot -18.8524 -14.2398
rtoes 13.6289
lfemur -45.6112 10.2101 -22.8806
ltibia 19.2477
lfoot -5.10695 -2.30181
ltoes -7.51679
89
root -40.6332 17.4175 -4.895 -113.757 84.5557 -146.764
lowerback 19.5835 -1.17113 2.9978
upperback 3.14071 -0.670797 0.501429
thorax -7.58931 -0.312267 -1.00517
lowerneck 3.96961 -0.825832 1.69867
upperneck -16.4092 -0.20883 3.10997
head -5.60144 -0.294094 0.69281
rclavicle 3.73715e-014 1.8487e-014
rhumerus -33.1258 0.676423 -89.5455
rradius 36.3046
rwrist -6.71684
rhand -21.0564 -8.68518
rfingers 7.12502
rthumb 5.3199 -38.5984
lclavicle 3.73715e-014 1.8487e-014
lhumerus -32.3598 -2.08049 88.5405
lradius 30.591
lwrist 27.9552
lhand -19.5001 10.4939
lfingers 7.12502
lthumb 6.82241 40.364
rfemur -52.3758 4.56585 21.0472
rtibia 33.4936
rfoot -18.8441 -14.2267
rtoes 13.5302
lfemur -45.5849 10.2059 -22.8856
ltibia 19.2435
lfoot -5.12323 -2.30858
ltoes -7.54552
90
root -40.6302 17.4184 -4.89552 -113.91 84.5493 -146.898
lowerback 19.6032 -1.18553 3.04907
upperback 3.11936 -0.679519 0.490902
thorax -7.62423 -0.318861 -1.04308
lowerneck 3.90771 -0.825403 1.67439
upperneck -16.3435 -0.211467 3.13414
head -5.57007 -0.294386 0.704041
rclavicle 4.31363e-014 3.63776e-014
rhumerus -33.0943 0.615209 -89.5562
rradius 36.1576
rwrist -6.64921
rhand -21.0236 -8.67146
rfingers 7.12502
rthumb 5.35159 -38.5839
lclavicle 4.31363e-014 3.63776e-014
lhumerus -32.3615 -1.97727 88.478
lradius 30.592
lwrist 27.9932
lhand -19.545 10.4267
lfingers 7.12502
lthumb 6.77909 40.2982
rfemur -52.3357 4.51525 21.0703
rtibia 33.485
rfoot -18.8331 -14.1999
rtoes 13.4295
lfemur -45.5486 10.2041 -22.8927
ltibia 19.2393
lfoot -5.13902 -2.32414
ltoes -7.58867
91
root -40.6274 17.4192 -4.89603 -114.028 84.5443 -146.995
lowerback 19.6244 -1.19486 3.09938
upperback 3.10352 -0.681294 0.483126
thorax -7.65366 -0.321849 -1.07932
lowerneck 3.86688 -0.830818 1.64345
upperneck -16.3127 -0.221049 3.1546
head -5.55316 -0.297869 0.715845
rclavicle 1.94809e-014 2.00773e-014
rhumerus -33.0632 0.560072 -89.5592
rradius 36.0218
rwrist -6.57824
rhand -20.9968 -8.65674
rfingers 7.12502
rthumb 5.37743 -38.5685
lclavicle 1.94809e-014 2.00773e-014
lhumerus -32.3612 -1.8942 88.4226
lradius 30.5924
lwrist 28.044
lhand -19.5768 10.3543
lfingers 7.12502
lthumb 6.74841 40.2267
rfemur -52.2918 4.47629 21.0889
rtibia 33.4769
rfoot -18.8247 -14.1798
rtoes 13.3377
lfemur -45.5098 10.2125 -22.9039
ltibia 19.2347
lfoot -5.15334 -2.34467
ltoes -7.65766
92
root -40.6246 17.42 -4.89639 -114.095 84.5433 -147.04
lowerback 19.6442 -1.19865 3.14428
upperback 3.08885 -0.676865 0.476838
thorax -7.68072 -0.321676 -1.11251
lowerneck 3.86415 -0.842382 1.62217
upperneck -16.3249 -0.237743 3.15897
head -5.5562 -0.305102 0.721767
rclavicle 1.39149e-015 9.14409e-015
rhumerus -33.0413 0.512763 -89.5582
rradius 35.8994
rwrist -6.50335
rhand -20.9828 -8.63861
rfingers 7.12502
rthumb 5.39095 -38.55
lclavicle 1.39149e-015 9.14409e-015
lhumerus -32.3638 -1.82425 88.3701
lradius 30.5878
lwrist 28.091
lhand -19.5892 10.2777
lfingers 7.12502
lthumb 6.73644 40.1505
rfemur -52.2483 4.46641 21.092
rtibia 33.4694
rfoot -18.8259 -14.1809
rtoes 13.2634
lfemur -45.4702 10.2189 -22.9093
ltibia 19.2307
lfoot -5.16612 -2.35472
ltoes -7.71098
93
root -40.6219 17.4207 -4.89661 -114.106 84.5472 -147.031
lowerback 19.6598 -1.19848 3.17936
upperback 3.0762 -0.669126 0.474416
thorax -7.70302 -0.319526 -1.13684
lowerneck 3.87928 -0.856372 1.60506
upperneck -16.363 -0.258153 3.14777
head -5.57043 -0.313734 0.722533
rclavicle 1.35174e-014 9.93923e-016
rhumerus -33.0222 0.484377 -89.5533
rradius 35.7879
rwrist -6.42657
rhand -20.983 -8.61667
rfingers 7.12502
rthumb 5.39074 -38.5281
lclavicle 1.35174e-014 9.93923e-016
lhumerus -32.3633 -1.75769 88.3219
lradius 30.5754
lwrist 28.1202
lhand -19.5867 10.2105
lfingers 7.12502
lthumb 6.73885 40.0832
rfemur -52.2106 4.48167 21.0818
rtibia 33.4638
rfoot -18.8351 -14.2016
rtoes 13.202
lfemur -45.4343 10.2326 -22.9166
ltibia 19.2257
lfoot -5.17791 -2.36545
ltoes -7.75309
94
root -40.6196 17.4211 -4.89659 -114.055 84.5579 -146.966
lowerback 19.6697 -1.19463 3.20195
upperback 3.06199 -0.659378 0.47376
thorax -7.72371 -0.316138 -1.15272
lowerneck 3.90409 -0.868936 1.58713
upperneck -16.4084 -0.277145 3.1307
head -5.58859 -0.3214 0.72159
rclavicle 3.53837e-014 6.95746e-014
rhumerus -33.0075 0.472658 -89.5488
rradius 35.6808
rwrist -6.34649
rhand -20.998 -8.59313
rfingers 7.12502
rthumb 5.37629 -38.5049
lclavicle 3.53837e-014 6.95746e-014
lhumerus -32.3683 -1.69168 88.274
lradius 30.5589
lwrist 28.1245
lhand -19.5688 10.1686
lfingers 7.12502
lthumb 6.75607 40.0409
rfemur -52.1828 4.5253 21.0556
rtibia 33.4604
rfoot -18.8512 -14.2456
rtoes 13.1527
lfemur -45.4051 10.2438 -22.92
ltibia 19.22
lfoot -5.18718 -2.36517
ltoes -7.76742
